<?xml version="1.0" encoding="utf-8"?>
<!-- Generator: Adobe Illustrator 16.0.0, SVG Export Plug-In . SVG Version: 6.00 Build 0)  -->
<!DOCTYPE svg PUBLIC "-//W3C//DTD SVG 1.1//EN" "http://www.w3.org/Graphics/SVG/1.1/DTD/svg11.dtd">
<svg version="1.1" id="Layer_1" xmlns="http://www.w3.org/2000/svg" xmlns:xlink="http://www.w3.org/1999/xlink" x="0px" y="0px"
	 width="460px" height="1040px" viewBox="0 0 460 1040" enable-background="new 0 0 460 1040" xml:space="preserve">
<path fill="none" stroke="#FAFBF9" stroke-width="2" stroke-miterlimit="10" d="M-3.292,1038.582
	c9.627-21.623,18.898-17.495,28.525-39.118c9.628-21.624,0.356-25.752,9.984-47.375c9.628-21.625,18.899-17.496,28.525-39.122
	c9.628-21.62,0.355-25.747,9.982-47.366c9.627-21.622,18.897-17.495,28.524-39.117c9.628-21.623,0.356-25.751,9.983-47.374
	c9.627-21.625,18.898-17.497,28.527-39.122c9.629-21.627,0.357-25.754,9.986-47.38s18.9-17.499,28.527-39.125
	c9.629-21.627,0.358-25.754,9.986-47.381c9.631-21.629,18.901-17.502,28.531-39.131s0.359-25.756,9.988-47.386 M-15.357,1033.21
	c9.627-21.623,18.897-17.495,28.525-39.118c9.627-21.624,0.356-25.751,9.984-47.374c9.628-21.625,18.898-17.496,28.526-39.123
	c9.626-21.619,0.355-25.746,9.98-47.366c9.628-21.622,18.898-17.495,28.525-39.117c9.629-21.623,0.356-25.751,9.983-47.373
	c9.628-21.625,18.899-17.498,28.528-39.123c9.627-21.626,0.356-25.754,9.985-47.38c9.63-21.626,18.899-17.499,28.528-39.125
	c9.629-21.627,0.357-25.755,9.986-47.38c9.629-21.631,18.9-17.502,28.531-39.131c9.629-21.629,0.358-25.756,9.988-47.386
	 M-27.422,1027.839c9.627-21.624,18.897-17.496,28.525-39.117c9.628-21.625,0.356-25.753,9.984-47.375
	c9.628-21.625,18.898-17.498,28.526-39.123c9.627-21.619,0.355-25.746,9.982-47.366c9.626-21.623,18.897-17.496,28.524-39.117
	c9.627-21.623,0.355-25.751,9.982-47.374c9.629-21.625,18.899-17.498,28.528-39.123c9.629-21.626,0.356-25.753,9.985-47.379
	c9.63-21.628,18.899-17.499,28.529-39.125c9.629-21.627,0.356-25.755,9.985-47.381c9.63-21.63,18.901-17.501,28.531-39.13
	s0.358-25.758,9.989-47.387 M-39.487,1022.467c9.626-21.623,18.898-17.495,28.525-39.118c9.628-21.623,0.356-25.752,9.984-47.375
	c9.627-21.625,18.898-17.495,28.527-39.121c9.626-21.62,0.354-25.747,9.98-47.367c9.627-21.622,18.898-17.495,28.525-39.117
	c9.627-21.623,0.357-25.751,9.983-47.374c9.628-21.624,18.9-17.497,28.527-39.122c9.629-21.627,0.357-25.754,9.986-47.38
	c9.628-21.627,18.898-17.499,28.528-39.126c9.629-21.626,0.358-25.754,9.985-47.38c9.631-21.629,18.902-17.502,28.531-39.13
	c9.631-21.63,0.359-25.757,9.989-47.386 M-51.552,1017.094c9.626-21.622,18.898-17.493,28.525-39.117
	c9.628-21.623,0.356-25.75,9.984-47.374c9.627-21.624,18.898-17.496,28.526-39.121c9.627-21.62,0.355-25.748,9.981-47.368
	c9.627-21.622,18.898-17.495,28.524-39.117c9.627-21.623,0.356-25.751,9.984-47.373C73.6,735.997,82.871,740.125,92.5,718.5
	c9.628-21.626,0.357-25.755,9.984-47.38c9.629-21.627,18.9-17.499,28.529-39.126c9.629-21.625,0.357-25.754,9.986-47.379
	c9.63-21.63,18.9-17.502,28.531-39.131c9.63-21.629,0.358-25.758,9.988-47.385 M-63.617,1011.724
	c9.626-21.623,18.898-17.495,28.525-39.118c9.627-21.624,0.356-25.751,9.983-47.375c9.628-21.624,18.899-17.497,28.528-39.121
	c9.625-21.62,0.355-25.747,9.98-47.367c9.627-21.624,18.898-17.495,28.524-39.117c9.628-21.623,0.357-25.751,9.984-47.374
	c9.628-21.626,18.9-17.498,28.527-39.124c9.629-21.625,0.357-25.753,9.986-47.378c9.629-21.628,18.9-17.499,28.529-39.126
	c9.629-21.626,0.357-25.754,9.986-47.38c9.629-21.629,18.9-17.502,28.529-39.13c9.63-21.629,0.359-25.757,9.99-47.387
	 M-75.683,1006.352c9.628-21.622,18.899-17.494,28.526-39.118c9.627-21.623,0.357-25.75,9.983-47.374
	c9.628-21.625,18.9-17.497,28.528-39.122c9.625-21.62,0.355-25.747,9.98-47.367c9.627-21.623,18.898-17.495,28.525-39.117
	c9.627-21.623,0.356-25.751,9.983-47.374c9.628-21.625,18.9-17.496,28.527-39.123c9.629-21.625,0.357-25.754,9.986-47.379
	c9.629-21.627,18.899-17.499,28.528-39.126c9.629-21.626,0.358-25.754,9.986-47.379c9.63-21.63,18.901-17.503,28.53-39.132
	c9.629-21.628,0.359-25.756,9.989-47.385 M-87.748,1000.979c9.627-21.622,18.899-17.494,28.525-39.118
	c9.628-21.623,0.356-25.751,9.984-47.374c9.628-21.624,18.899-17.497,28.528-39.121c9.625-21.62,0.353-25.749,9.98-47.368
	c9.627-21.623,18.897-17.495,28.524-39.117c9.628-21.624,0.357-25.751,9.984-47.373c9.628-21.625,18.899-17.498,28.527-39.123
	c9.63-21.625,0.357-25.754,9.986-47.38c9.629-21.627,18.899-17.499,28.528-39.126c9.629-21.625,0.358-25.754,9.986-47.379
	c9.631-21.63,18.901-17.502,28.53-39.132c9.63-21.628,0.36-25.756,9.989-47.385 M-99.813,995.608
	c9.627-21.623,18.899-17.494,28.525-39.118c9.628-21.624,0.357-25.752,9.984-47.375c9.628-21.624,18.9-17.497,28.527-39.121
	c9.626-21.62,0.355-25.748,9.981-47.368c9.627-21.623,18.897-17.494,28.525-39.116c9.627-21.623,0.356-25.75,9.983-47.373
	c9.627-21.627,18.899-17.498,28.527-39.125c9.629-21.625,0.357-25.752,9.986-47.377c9.628-21.629,18.9-17.5,28.528-39.127
	c9.629-21.627,0.358-25.754,9.985-47.381c9.631-21.628,18.902-17.501,28.533-39.13c9.629-21.628,0.357-25.756,9.987-47.386
	 M-111.878,990.236c9.628-21.622,18.899-17.495,28.525-39.118c9.628-21.623,0.357-25.751,9.984-47.374
	c9.628-21.625,18.9-17.497,28.527-39.122c9.626-21.62,0.355-25.748,9.981-47.368c9.626-21.622,18.898-17.494,28.525-39.116
	c9.627-21.624,0.356-25.751,9.983-47.372c9.628-21.627,18.899-17.498,28.527-39.125c9.629-21.625,0.358-25.754,9.986-47.379
	c9.629-21.627,18.9-17.498,28.527-39.125c9.629-21.627,0.358-25.754,9.987-47.381c9.63-21.629,18.901-17.501,28.531-39.131
	c9.63-21.629,0.358-25.756,9.987-47.385 M-123.943,984.864c9.627-21.622,18.898-17.495,28.525-39.118
	c9.628-21.623,0.357-25.751,9.984-47.374c9.628-21.624,18.899-17.497,28.527-39.121c9.626-21.62,0.355-25.749,9.981-47.369
	c9.626-21.622,18.897-17.494,28.525-39.115c9.626-21.624,0.356-25.751,9.982-47.374c9.628-21.625,18.9-17.498,28.528-39.123
	c9.629-21.625,0.357-25.754,9.986-47.379c9.629-21.627,18.899-17.5,28.528-39.127c9.629-21.625,0.357-25.754,9.986-47.379
	c9.629-21.631,18.901-17.502,28.531-39.132c9.629-21.629,0.358-25.756,9.988-47.385 M-136.008,979.493
	c9.628-21.623,18.898-17.495,28.525-39.118c9.628-21.623,0.357-25.752,9.984-47.375c9.627-21.624,18.899-17.497,28.527-39.121
	c9.626-21.62,0.355-25.748,9.98-47.368c9.627-21.623,18.899-17.493,28.526-39.116c9.626-21.623,0.356-25.75,9.982-47.373
	c9.629-21.627,18.9-17.497,28.528-39.124c9.629-21.626,0.358-25.753,9.986-47.378c9.628-21.627,18.9-17.5,28.528-39.127
	c9.629-21.627,0.358-25.754,9.987-47.381c9.629-21.629,18.9-17.5,28.531-39.129c9.63-21.63,0.357-25.757,9.988-47.387
	 M-148.073,974.121c9.627-21.622,18.898-17.495,28.526-39.118c9.627-21.623,0.356-25.751,9.983-47.374
	c9.628-21.625,18.899-17.497,28.527-39.122c9.626-21.619,0.355-25.748,9.98-47.367c9.627-21.622,18.899-17.494,28.526-39.117
	c9.626-21.623,0.355-25.75,9.982-47.373c9.629-21.625,18.9-17.498,28.529-39.123c9.627-21.625,0.357-25.754,9.984-47.38
	c9.629-21.627,18.901-17.499,28.53-39.125c9.628-21.627,0.357-25.754,9.986-47.381c9.63-21.629,18.901-17.5,28.531-39.131
	c9.63-21.629,0.358-25.756,9.988-47.385 M-160.139,968.749c9.628-21.622,18.899-17.495,28.526-39.118s0.357-25.751,9.983-47.374
	c9.628-21.625,18.9-17.497,28.528-39.121c9.625-21.619,0.355-25.748,9.98-47.368c9.627-21.622,18.899-17.495,28.525-39.117
	c9.627-21.622,0.356-25.75,9.983-47.373c9.629-21.625,18.9-17.498,28.527-39.123c9.629-21.626,0.359-25.753,9.986-47.38
	c9.629-21.626,18.9-17.499,28.529-39.125s0.358-25.755,9.987-47.38c9.63-21.629,18.901-17.502,28.53-39.131
	c9.631-21.629,0.358-25.756,9.988-47.386 M-172.204,963.378c9.628-21.623,18.899-17.495,28.527-39.118
	c9.626-21.622,0.356-25.752,9.982-47.375c9.629-21.625,18.9-17.497,28.528-39.122c9.625-21.618,0.355-25.746,9.98-47.366
	c9.627-21.623,18.899-17.495,28.525-39.117c9.627-21.623,0.356-25.75,9.983-47.374c9.629-21.625,18.9-17.497,28.528-39.122
	c9.628-21.627,0.357-25.754,9.985-47.38c9.629-21.626,18.901-17.499,28.53-39.125c9.628-21.627,0.357-25.754,9.986-47.381
	c9.63-21.63,18.9-17.501,28.531-39.13c9.63-21.629,0.358-25.756,9.988-47.387 M-184.268,958.006
	c9.627-21.622,18.898-17.495,28.526-39.118c9.626-21.623,0.355-25.75,9.983-47.373c9.628-21.625,18.899-17.497,28.527-39.123
	c9.625-21.62,0.354-25.747,9.98-47.367c9.628-21.622,18.898-17.495,28.525-39.117c9.627-21.623,0.356-25.751,9.983-47.373
	c9.629-21.625,18.899-17.498,28.528-39.123c9.628-21.626,0.357-25.754,9.986-47.38c9.628-21.626,18.9-17.499,28.529-39.125
	s0.357-25.755,9.986-47.38c9.63-21.63,18.9-17.501,28.53-39.132c9.63-21.629,0.36-25.756,9.989-47.385 M-196.334,952.634
	c9.628-21.623,18.899-17.494,28.526-39.117c9.627-21.624,0.356-25.752,9.983-47.374c9.629-21.625,18.9-17.497,28.527-39.122
	c9.626-21.62,0.355-25.748,9.981-47.368c9.627-21.622,18.898-17.495,28.525-39.117s0.356-25.751,9.983-47.373
	c9.629-21.625,18.899-17.498,28.528-39.123c9.628-21.626,0.357-25.753,9.985-47.38c9.629-21.626,18.901-17.498,28.53-39.126
	c9.627-21.625,0.357-25.752,9.985-47.379c9.63-21.629,18.901-17.501,28.531-39.13c9.63-21.63,0.358-25.759,9.988-47.386
	 M-208.398,947.263c9.627-21.623,18.898-17.494,28.525-39.117c9.627-21.624,0.356-25.752,9.984-47.375
	c9.628-21.625,18.899-17.497,28.526-39.122c9.626-21.62,0.355-25.747,9.981-47.367c9.628-21.622,18.898-17.495,28.525-39.117
	c9.627-21.623,0.356-25.751,9.984-47.374c9.627-21.625,18.898-17.497,28.527-39.122c9.628-21.627,0.357-25.754,9.986-47.38
	c9.629-21.626,18.9-17.499,28.528-39.126c9.628-21.626,0.358-25.754,9.986-47.38c9.63-21.629,18.901-17.501,28.531-39.13
	c9.63-21.629,0.359-25.756,9.988-47.387 M-220.463,941.892c9.627-21.623,18.897-17.495,28.525-39.118
	c9.627-21.624,0.356-25.751,9.984-47.374c9.628-21.625,18.898-17.497,28.526-39.122c9.627-21.621,0.355-25.748,9.982-47.368
	c9.626-21.622,18.897-17.495,28.524-39.117c9.628-21.623,0.356-25.751,9.984-47.373c9.627-21.625,18.898-17.498,28.527-39.123
	c9.628-21.626,0.357-25.754,9.986-47.38c9.629-21.627,18.899-17.499,28.528-39.126c9.629-21.625,0.357-25.754,9.986-47.379
	c9.63-21.63,18.901-17.502,28.531-39.131c9.63-21.629,0.359-25.757,9.989-47.386 M-232.528,936.521
	c9.627-21.624,18.897-17.496,28.525-39.12c9.627-21.623,0.356-25.75,9.984-47.374s18.898-17.496,28.526-39.121
	c9.626-21.62,0.355-25.748,9.98-47.368c9.628-21.622,18.899-17.495,28.526-39.116c9.626-21.622,0.356-25.752,9.982-47.374
	c9.629-21.625,18.9-17.498,28.529-39.123c9.628-21.625,0.357-25.753,9.985-47.38c9.629-21.627,18.9-17.498,28.529-39.126
	c9.629-21.625,0.357-25.753,9.986-47.379c9.63-21.629,18.901-17.502,28.531-39.13c9.63-21.629,0.359-25.758,9.988-47.387
	 M-244.593,931.147c9.626-21.623,18.897-17.494,28.525-39.118c9.628-21.623,0.356-25.751,9.984-47.375
	c9.627-21.624,18.898-17.495,28.526-39.121c9.627-21.62,0.355-25.747,9.981-47.367c9.627-21.622,18.898-17.495,28.525-39.117
	c9.627-21.623,0.355-25.75,9.983-47.373c9.628-21.627,18.899-17.498,28.528-39.123c9.627-21.627,0.357-25.754,9.986-47.379
	c9.628-21.628,18.899-17.5,28.528-39.127c9.629-21.626,0.357-25.754,9.986-47.38c9.63-21.629,18.901-17.502,28.531-39.13
	c9.63-21.629,0.359-25.757,9.989-47.387 M-256.658,925.775c9.626-21.622,18.897-17.494,28.525-39.118
	c9.628-21.623,0.356-25.75,9.984-47.374c9.627-21.624,18.898-17.497,28.526-39.121c9.627-21.62,0.355-25.748,9.981-47.368
	c9.627-21.623,18.898-17.495,28.524-39.116c9.628-21.625,0.356-25.752,9.984-47.373c9.628-21.627,18.899-17.498,28.528-39.125
	c9.628-21.625,0.357-25.752,9.985-47.379c9.629-21.627,18.9-17.498,28.529-39.125c9.629-21.625,0.358-25.755,9.986-47.38
	c9.63-21.63,18.901-17.502,28.531-39.132c9.63-21.628,0.359-25.756,9.989-47.385 M-268.724,920.404
	c9.627-21.623,18.898-17.496,28.526-39.118c9.627-21.624,0.356-25.751,9.983-47.375c9.628-21.624,18.899-17.497,28.527-39.121
	c9.626-21.62,0.355-25.747,9.98-47.368c9.628-21.623,18.899-17.494,28.525-39.115c9.628-21.623,0.356-25.752,9.984-47.375
	c9.628-21.625,18.899-17.498,28.527-39.123c9.628-21.625,0.357-25.754,9.986-47.379c9.629-21.627,18.9-17.498,28.529-39.125
	s0.357-25.754,9.986-47.381c9.63-21.629,18.901-17.502,28.531-39.131c9.63-21.628,0.359-25.757,9.989-47.386 M-280.789,915.032
	c9.627-21.623,18.899-17.495,28.526-39.118s0.356-25.752,9.983-47.375c9.628-21.624,18.899-17.496,28.527-39.121
	c9.626-21.62,0.354-25.748,9.981-47.367c9.627-21.623,18.898-17.494,28.524-39.117c9.628-21.623,0.356-25.75,9.984-47.373
	c9.628-21.625,18.9-17.498,28.527-39.123c9.629-21.627,0.357-25.754,9.986-47.379c9.629-21.627,18.9-17.5,28.529-39.127
	s0.357-25.754,9.986-47.381c9.63-21.627,18.9-17.5,28.53-39.13c9.63-21.629,0.36-25.756,9.99-47.386 M-292.854,909.66
	c9.627-21.622,18.899-17.495,28.525-39.118c9.628-21.623,0.357-25.751,9.984-47.374c9.628-21.624,18.899-17.497,28.528-39.121
	c9.625-21.619,0.354-25.748,9.98-47.369c9.627-21.621,18.897-17.494,28.524-39.115c9.628-21.623,0.357-25.752,9.984-47.373
	c9.628-21.627,18.899-17.498,28.527-39.124c9.629-21.625,0.357-25.753,9.986-47.38c9.629-21.627,18.9-17.498,28.529-39.125
	s0.358-25.754,9.986-47.381c9.63-21.629,18.901-17.5,28.531-39.131c9.629-21.629,0.359-25.756,9.989-47.385 M-304.919,904.289
	c9.627-21.623,18.898-17.496,28.525-39.118c9.628-21.624,0.356-25.752,9.984-47.375c9.628-21.624,18.899-17.497,28.526-39.121
	c9.627-21.62,0.355-25.747,9.982-47.368c9.627-21.623,18.897-17.494,28.524-39.115c9.628-21.624,0.356-25.751,9.984-47.374
	c9.627-21.626,18.898-17.498,28.527-39.124c9.629-21.625,0.357-25.753,9.986-47.378c9.629-21.628,18.9-17.499,28.529-39.126
	c9.628-21.627,0.358-25.754,9.985-47.381c9.63-21.629,18.901-17.502,28.531-39.131c9.63-21.629,0.359-25.757,9.989-47.386
	 M-316.984,898.917c9.627-21.622,18.899-17.495,28.525-39.118c9.628-21.623,0.356-25.752,9.984-47.375
	c9.628-21.624,18.898-17.495,28.527-39.12c9.626-21.62,0.355-25.749,9.981-47.368c9.626-21.623,18.897-17.494,28.524-39.117
	c9.628-21.623,0.357-25.75,9.984-47.374s18.899-17.496,28.527-39.122c9.629-21.625,0.357-25.754,9.986-47.379
	c9.629-21.627,18.899-17.5,28.528-39.126c9.629-21.627,0.359-25.755,9.986-47.38c9.63-21.631,18.902-17.502,28.532-39.131
	c9.629-21.629,0.358-25.756,9.988-47.386"/>
<path fill="none" stroke="#FAFBF9" stroke-width="2" stroke-miterlimit="10" d="M227.78,519.586
	c9.627-21.624,18.897-17.495,28.524-39.118c9.629-21.624,0.356-25.752,9.984-47.375c9.628-21.625,18.898-17.496,28.525-39.122
	c9.627-21.62,0.355-25.747,9.982-47.367c9.627-21.622,18.896-17.495,28.524-39.117c9.628-21.623,0.356-25.751,9.983-47.374
	c9.627-21.625,18.898-17.497,28.527-39.122c9.629-21.627,0.357-25.754,9.986-47.38s18.9-17.499,28.527-39.125
	c9.629-21.627,0.357-25.755,9.986-47.381c9.63-21.629,18.9-17.502,28.531-39.13c9.63-21.629,0.359-25.757,9.988-47.386
	 M215.715,514.214c9.627-21.623,18.897-17.495,28.525-39.118c9.627-21.624,0.355-25.751,9.984-47.374
	c9.627-21.625,18.897-17.497,28.525-39.123c9.626-21.62,0.355-25.747,9.98-47.367c9.627-21.622,18.898-17.495,28.525-39.117
	c9.629-21.623,0.356-25.751,9.983-47.373c9.628-21.625,18.899-17.498,28.528-39.123c9.627-21.626,0.356-25.755,9.985-47.38
	c9.629-21.626,18.899-17.499,28.528-39.125c9.629-21.627,0.357-25.755,9.986-47.38c9.629-21.63,18.9-17.501,28.53-39.131
	c9.63-21.629,0.359-25.757,9.989-47.385 M203.65,508.843c9.627-21.624,18.896-17.496,28.525-39.118
	c9.627-21.625,0.355-25.752,9.983-47.376s18.897-17.496,28.526-39.121c9.627-21.62,0.354-25.747,9.981-47.367
	c9.626-21.623,18.897-17.496,28.524-39.117c9.627-21.623,0.355-25.751,9.982-47.374c9.629-21.625,18.899-17.498,28.528-39.123
	c9.629-21.626,0.356-25.753,9.985-47.379c9.629-21.628,18.899-17.499,28.528-39.126c9.63-21.626,0.357-25.753,9.986-47.38
	c9.63-21.629,18.901-17.501,28.53-39.13c9.631-21.629,0.359-25.758,9.99-47.387 M191.585,503.47
	c9.626-21.622,18.897-17.494,28.524-39.117c9.629-21.624,0.356-25.752,9.984-47.376c9.627-21.624,18.898-17.494,28.527-39.121
	c9.626-21.62,0.354-25.747,9.98-47.367c9.627-21.622,18.897-17.495,28.524-39.117c9.627-21.623,0.356-25.751,9.983-47.374
	c9.628-21.624,18.9-17.497,28.527-39.123c9.629-21.626,0.357-25.753,9.986-47.379c9.629-21.627,18.898-17.499,28.527-39.126
	c9.63-21.626,0.358-25.754,9.986-47.38c9.631-21.629,18.902-17.502,28.531-39.13c9.63-21.629,0.359-25.757,9.989-47.387
	 M179.52,498.098c9.627-21.622,18.898-17.494,28.525-39.117c9.628-21.623,0.355-25.75,9.983-47.375
	c9.628-21.623,18.899-17.496,28.526-39.121c9.627-21.62,0.355-25.748,9.981-47.368c9.627-21.623,18.897-17.495,28.524-39.117
	c9.627-21.623,0.355-25.751,9.983-47.373c9.628-21.626,18.899-17.498,28.528-39.124c9.628-21.625,0.357-25.754,9.984-47.379
	c9.629-21.627,18.9-17.499,28.529-39.126c9.629-21.625,0.357-25.754,9.986-47.379c9.63-21.63,18.9-17.502,28.531-39.131
	c9.629-21.629,0.358-25.757,9.988-47.385 M167.455,492.727c9.626-21.623,18.898-17.494,28.525-39.117
	c9.627-21.625,0.355-25.752,9.982-47.375c9.628-21.625,18.899-17.498,28.528-39.122c9.625-21.62,0.354-25.747,9.979-47.367
	c9.627-21.624,18.898-17.495,28.524-39.117c9.628-21.623,0.356-25.751,9.983-47.374c9.629-21.626,18.9-17.498,28.527-39.124
	c9.629-21.625,0.357-25.753,9.986-47.378c9.629-21.628,18.9-17.499,28.529-39.126c9.629-21.626,0.357-25.754,9.985-47.38
	c9.63-21.629,18.901-17.502,28.53-39.131c9.63-21.628,0.359-25.757,9.99-47.386 M155.389,487.355
	c9.629-21.623,18.899-17.494,28.526-39.119c9.627-21.623,0.356-25.75,9.983-47.373c9.627-21.625,18.899-17.498,28.527-39.123
	c9.625-21.62,0.355-25.747,9.98-47.367c9.627-21.623,18.898-17.495,28.525-39.117c9.627-21.624,0.355-25.751,9.982-47.373
	c9.628-21.626,18.9-17.498,28.527-39.124c9.629-21.626,0.357-25.754,9.986-47.379c9.629-21.627,18.899-17.499,28.528-39.126
	c9.629-21.626,0.358-25.754,9.985-47.379c9.631-21.63,18.902-17.503,28.531-39.132s0.359-25.756,9.989-47.385 M143.324,481.982
	c9.627-21.621,18.898-17.494,28.525-39.117s0.355-25.752,9.983-47.375c9.628-21.624,18.899-17.496,28.528-39.12
	c9.625-21.62,0.353-25.749,9.979-47.369c9.628-21.622,18.897-17.494,28.524-39.116c9.628-21.624,0.357-25.751,9.984-47.373
	c9.627-21.626,18.898-17.498,28.526-39.124c9.629-21.625,0.356-25.753,9.986-47.379c9.629-21.627,18.899-17.499,28.528-39.126
	c9.629-21.625,0.358-25.754,9.986-47.38c9.63-21.629,18.901-17.501,28.53-39.131c9.63-21.629,0.36-25.756,9.989-47.385
	 M131.26,476.611c9.627-21.623,18.898-17.494,28.524-39.117c9.628-21.624,0.356-25.752,9.983-47.375
	c9.629-21.624,18.9-17.497,28.527-39.121c9.626-21.62,0.355-25.748,9.98-47.368c9.628-21.623,18.897-17.494,28.525-39.116
	c9.627-21.624,0.356-25.751,9.983-47.374c9.627-21.626,18.899-17.497,28.526-39.124c9.629-21.625,0.357-25.753,9.986-47.378
	c9.629-21.628,18.9-17.499,28.528-39.126c9.629-21.627,0.358-25.754,9.985-47.381c9.631-21.628,18.902-17.501,28.533-39.13
	c9.629-21.628,0.357-25.757,9.987-47.386 M119.194,471.24c9.628-21.623,18.899-17.495,28.524-39.118
	c9.629-21.623,0.357-25.751,9.984-47.374c9.628-21.625,18.9-17.497,28.527-39.122c9.625-21.62,0.354-25.748,9.98-47.368
	c9.626-21.622,18.898-17.494,28.525-39.117s0.355-25.75,9.982-47.372c9.629-21.626,18.899-17.498,28.527-39.124
	c9.629-21.625,0.357-25.754,9.986-47.379c9.629-21.627,18.9-17.499,28.527-39.126c9.629-21.627,0.358-25.754,9.987-47.38
	c9.63-21.629,18.901-17.501,28.531-39.131c9.63-21.629,0.358-25.756,9.987-47.385 M107.129,465.867
	c9.627-21.621,18.898-17.494,28.525-39.117c9.628-21.623,0.357-25.751,9.984-47.374c9.627-21.624,18.898-17.497,28.526-39.121
	c9.626-21.62,0.354-25.749,9.981-47.369c9.625-21.622,18.896-17.494,28.524-39.117c9.626-21.622,0.356-25.75,9.982-47.373
	c9.628-21.625,18.899-17.498,28.528-39.123s0.356-25.753,9.985-47.379c9.629-21.627,18.899-17.499,28.528-39.126
	c9.629-21.626,0.357-25.754,9.986-47.38c9.629-21.63,18.901-17.501,28.531-39.131c9.629-21.629,0.358-25.756,9.988-47.385
	 M95.064,460.497c9.627-21.623,18.897-17.495,28.524-39.118c9.628-21.623,0.357-25.752,9.984-47.375
	c9.627-21.625,18.899-17.497,28.526-39.121c9.627-21.62,0.355-25.748,9.98-47.368c9.627-21.623,18.898-17.494,28.525-39.117
	s0.356-25.75,9.982-47.374c9.629-21.625,18.9-17.496,28.528-39.123c9.629-21.626,0.358-25.753,9.985-47.379
	c9.629-21.626,18.9-17.499,28.528-39.125c9.63-21.627,0.358-25.754,9.987-47.381c9.629-21.629,18.9-17.501,28.531-39.13
	c9.63-21.629,0.357-25.756,9.988-47.386 M82.999,455.125c9.627-21.622,18.897-17.495,28.526-39.118
	c9.627-21.623,0.355-25.751,9.982-47.374c9.629-21.626,18.899-17.497,28.527-39.123c9.625-21.619,0.355-25.747,9.98-47.367
	c9.627-21.622,18.898-17.495,28.525-39.117c9.626-21.623,0.355-25.75,9.982-47.373c9.629-21.625,18.899-17.498,28.529-39.123
	c9.627-21.625,0.356-25.754,9.983-47.38c9.629-21.626,18.901-17.499,28.53-39.125c9.627-21.627,0.356-25.754,9.986-47.38
	c9.629-21.63,18.9-17.501,28.53-39.131c9.63-21.629,0.358-25.756,9.988-47.385 M70.934,449.753
	c9.627-21.622,18.898-17.495,28.525-39.118s0.357-25.751,9.982-47.374c9.629-21.625,18.9-17.497,28.529-39.121
	c9.625-21.62,0.354-25.749,9.979-47.369c9.627-21.622,18.899-17.495,28.524-39.117c9.627-21.622,0.356-25.75,9.983-47.373
	c9.629-21.625,18.899-17.498,28.526-39.123c9.63-21.626,0.359-25.753,9.986-47.38c9.629-21.626,18.9-17.499,28.529-39.125
	s0.357-25.754,9.987-47.38c9.63-21.629,18.901-17.501,28.53-39.131c9.631-21.628,0.358-25.757,9.988-47.385 M58.868,444.382
	c9.628-21.623,18.899-17.495,28.526-39.118s0.356-25.752,9.982-47.375c9.629-21.625,18.9-17.497,28.528-39.122
	c9.625-21.62,0.354-25.747,9.979-47.367c9.627-21.623,18.899-17.495,28.525-39.117c9.627-21.623,0.355-25.751,9.982-47.374
	c9.629-21.625,18.9-17.497,28.528-39.122c9.628-21.627,0.357-25.754,9.985-47.38c9.629-21.626,18.9-17.499,28.529-39.126
	c9.629-21.626,0.357-25.753,9.986-47.38c9.631-21.629,18.9-17.501,28.531-39.13c9.63-21.629,0.357-25.756,9.988-47.386
	 M46.804,439.01c9.627-21.622,18.898-17.495,28.526-39.118c9.626-21.624,0.355-25.751,9.982-47.374
	c9.629-21.625,18.899-17.497,28.527-39.123c9.625-21.62,0.354-25.747,9.98-47.367c9.628-21.622,18.898-17.495,28.525-39.117
	c9.627-21.623,0.355-25.751,9.982-47.373c9.629-21.625,18.898-17.498,28.527-39.123c9.629-21.626,0.357-25.754,9.985-47.38
	c9.63-21.626,18.901-17.499,28.53-39.126c9.629-21.625,0.357-25.754,9.986-47.379c9.63-21.63,18.899-17.501,28.529-39.131
	c9.631-21.629,0.36-25.756,9.989-47.385 M34.738,433.638c9.628-21.623,18.899-17.495,28.525-39.118
	c9.627-21.624,0.356-25.751,9.983-47.374c9.629-21.625,18.899-17.497,28.526-39.122c9.627-21.62,0.355-25.748,9.981-47.368
	c9.627-21.622,18.898-17.495,28.525-39.117s0.356-25.751,9.983-47.373c9.629-21.625,18.898-17.498,28.527-39.123
	c9.628-21.626,0.357-25.753,9.984-47.38c9.63-21.626,18.902-17.498,28.531-39.126c9.627-21.625,0.356-25.753,9.984-47.379
	c9.63-21.629,18.9-17.502,28.531-39.13c9.63-21.629,0.357-25.758,9.988-47.386 M22.674,428.267
	c9.627-21.624,18.898-17.495,28.525-39.118c9.627-21.624,0.356-25.751,9.984-47.375c9.627-21.625,18.898-17.497,28.525-39.122
	c9.626-21.62,0.355-25.747,9.98-47.367c9.629-21.622,18.898-17.495,28.525-39.117c9.627-21.623,0.356-25.751,9.984-47.374
	c9.627-21.625,18.898-17.497,28.527-39.122c9.627-21.627,0.356-25.754,9.985-47.38s18.9-17.499,28.528-39.126
	c9.628-21.626,0.357-25.754,9.986-47.38c9.629-21.629,18.9-17.502,28.53-39.13c9.63-21.629,0.359-25.757,9.988-47.386
	 M10.609,422.895c9.627-21.623,18.897-17.494,28.525-39.119c9.627-21.623,0.356-25.75,9.984-47.373
	c9.628-21.625,18.897-17.497,28.526-39.122c9.627-21.621,0.354-25.748,9.981-47.368c9.626-21.622,18.897-17.495,28.524-39.117
	c9.628-21.623,0.355-25.751,9.982-47.373c9.629-21.625,18.899-17.498,28.528-39.123c9.628-21.626,0.356-25.754,9.985-47.38
	c9.629-21.627,18.899-17.499,28.529-39.126c9.629-21.625,0.356-25.754,9.985-47.379c9.63-21.63,18.901-17.502,28.53-39.132
	c9.631-21.628,0.359-25.756,9.99-47.385 M-1.456,417.523c9.627-21.623,18.897-17.496,28.525-39.119
	c9.627-21.624,0.356-25.75,9.984-47.375s18.898-17.496,28.526-39.121c9.626-21.62,0.354-25.748,9.979-47.368
	c9.629-21.623,18.899-17.495,28.526-39.116c9.626-21.623,0.356-25.752,9.981-47.374c9.63-21.625,18.9-17.498,28.529-39.124
	c9.629-21.625,0.357-25.752,9.985-47.379s18.899-17.498,28.528-39.126c9.63-21.625,0.357-25.753,9.986-47.379
	c9.631-21.629,18.901-17.502,28.531-39.13c9.63-21.629,0.359-25.758,9.988-47.387 M-13.521,412.15
	c9.626-21.623,18.897-17.494,28.525-39.118c9.628-21.623,0.356-25.751,9.984-47.375c9.627-21.624,18.898-17.496,28.526-39.121
	c9.626-21.62,0.355-25.747,9.981-47.367c9.627-21.622,18.897-17.495,28.524-39.117c9.627-21.623,0.355-25.751,9.983-47.374
	c9.628-21.626,18.899-17.497,28.528-39.123c9.627-21.626,0.357-25.754,9.986-47.379c9.627-21.627,18.898-17.499,28.527-39.126
	c9.629-21.626,0.357-25.754,9.986-47.38c9.63-21.629,18.9-17.502,28.531-39.13c9.629-21.629,0.358-25.757,9.988-47.387
	 M-25.586,406.779c9.626-21.623,18.897-17.494,28.525-39.118c9.628-21.623,0.356-25.75,9.984-47.374
	c9.627-21.624,18.898-17.497,28.526-39.121c9.627-21.62,0.355-25.748,9.981-47.368c9.626-21.622,18.898-17.495,28.524-39.117
	c9.628-21.623,0.356-25.751,9.983-47.373c9.629-21.626,18.899-17.498,28.529-39.124c9.627-21.625,0.356-25.753,9.984-47.379
	c9.629-21.627,18.9-17.499,28.529-39.126c9.629-21.625,0.357-25.754,9.986-47.379c9.629-21.63,18.9-17.502,28.53-39.132
	c9.63-21.628,0.358-25.756,9.989-47.385 M-37.652,401.408c9.627-21.623,18.898-17.496,28.526-39.118
	c9.627-21.624,0.356-25.752,9.983-47.375c9.628-21.624,18.899-17.497,28.527-39.121c9.626-21.62,0.355-25.749,9.98-47.368
	c9.628-21.623,18.899-17.495,28.524-39.116c9.629-21.623,0.356-25.752,9.984-47.374c9.628-21.626,18.898-17.498,28.527-39.124
	c9.628-21.625,0.356-25.753,9.986-47.378c9.629-21.628,18.899-17.499,28.528-39.126c9.629-21.626,0.356-25.754,9.985-47.381
	c9.631-21.628,18.902-17.501,28.531-39.13c9.631-21.629,0.359-25.757,9.989-47.386 M-49.717,396.036
	c9.627-21.623,18.899-17.495,28.526-39.118s0.356-25.752,9.983-47.375c9.628-21.624,18.899-17.496,28.527-39.121
	c9.626-21.62,0.354-25.748,9.981-47.368c9.627-21.622,18.897-17.494,28.524-39.117c9.628-21.623,0.356-25.75,9.984-47.373
	c9.627-21.625,18.899-17.497,28.526-39.123c9.629-21.626,0.356-25.754,9.986-47.379c9.629-21.627,18.899-17.5,28.528-39.126
	c9.629-21.627,0.357-25.754,9.986-47.381c9.631-21.629,18.9-17.501,28.53-39.13s0.36-25.756,9.989-47.386 M-61.782,390.664
	c9.627-21.622,18.899-17.495,28.525-39.118c9.628-21.623,0.357-25.751,9.984-47.374c9.628-21.624,18.899-17.497,28.528-39.121
	c9.625-21.62,0.354-25.749,9.98-47.369c9.627-21.622,18.897-17.494,28.524-39.117c9.628-21.622,0.357-25.75,9.984-47.372
	c9.628-21.626,18.899-17.498,28.526-39.124c9.629-21.625,0.357-25.753,9.986-47.379c9.629-21.627,18.9-17.5,28.529-39.126
	s0.357-25.754,9.986-47.38c9.629-21.63,18.9-17.501,28.531-39.131c9.629-21.629,0.357-25.756,9.987-47.385 M-73.847,385.293
	c9.627-21.623,18.898-17.496,28.525-39.118c9.628-21.624,0.356-25.752,9.984-47.375c9.628-21.624,18.899-17.497,28.526-39.121
	c9.627-21.62,0.355-25.748,9.982-47.368c9.627-21.623,18.897-17.494,28.524-39.116c9.628-21.624,0.356-25.751,9.984-47.374
	c9.627-21.626,18.898-17.499,28.527-39.124s0.357-25.753,9.986-47.378c9.629-21.628,18.9-17.499,28.529-39.126
	c9.627-21.627,0.357-25.754,9.984-47.381c9.63-21.628,18.9-17.501,28.531-39.13c9.63-21.629,0.359-25.757,9.988-47.386
	 M-85.912,379.921c9.627-21.622,18.899-17.495,28.525-39.118c9.628-21.623,0.356-25.752,9.984-47.375
	c9.628-21.624,18.898-17.496,28.527-39.121c9.626-21.62,0.355-25.748,9.981-47.368c9.626-21.622,18.897-17.494,28.524-39.117
	c9.628-21.623,0.357-25.75,9.984-47.374c9.627-21.624,18.899-17.497,28.527-39.122c9.629-21.625,0.356-25.754,9.985-47.379
	c9.629-21.627,18.899-17.5,28.528-39.126c9.629-21.627,0.359-25.754,9.986-47.38c9.629-21.63,18.901-17.502,28.531-39.131
	c9.629-21.629,0.358-25.756,9.988-47.386"/>
<path fill="none" stroke="#FAFBF9" stroke-width="2" stroke-miterlimit="10" d="M-329.093,893.526
	c9.627-21.624,18.898-17.495,28.525-39.118c9.628-21.624,0.356-25.752,9.984-47.375c9.628-21.625,18.899-17.496,28.526-39.122
	c9.627-21.62,0.355-25.747,9.982-47.366c9.627-21.623,18.897-17.496,28.524-39.117c9.628-21.623,0.356-25.752,9.984-47.375
	c9.627-21.625,18.898-17.496,28.527-39.121c9.629-21.627,0.357-25.754,9.986-47.381c9.629-21.625,18.9-17.498,28.528-39.125
	c9.629-21.627,0.358-25.754,9.986-47.381c9.63-21.629,18.901-17.5,28.531-39.13c9.63-21.629,0.359-25.757,9.989-47.386
	 M-341.158,888.154c9.627-21.623,18.897-17.495,28.525-39.118c9.627-21.624,0.356-25.751,9.984-47.374
	c9.628-21.625,18.898-17.497,28.526-39.123c9.626-21.619,0.355-25.747,9.981-47.367c9.627-21.621,18.898-17.494,28.525-39.117
	c9.628-21.623,0.356-25.75,9.983-47.373c9.628-21.625,18.899-17.498,28.528-39.123c9.628-21.625,0.357-25.754,9.986-47.379
	c9.629-21.627,18.899-17.5,28.528-39.127c9.629-21.625,0.357-25.754,9.986-47.379c9.63-21.629,18.901-17.5,28.531-39.131
	c9.63-21.629,0.359-25.757,9.989-47.385 M-353.223,882.783c9.627-21.624,18.897-17.496,28.525-39.118
	c9.628-21.625,0.356-25.752,9.984-47.375c9.628-21.625,18.898-17.497,28.526-39.122c9.627-21.619,0.355-25.746,9.982-47.367
	c9.626-21.623,18.897-17.496,28.524-39.117c9.627-21.622,0.356-25.75,9.983-47.373c9.628-21.625,18.899-17.498,28.528-39.123
	c9.629-21.626,0.357-25.754,9.986-47.379c9.629-21.629,18.899-17.5,28.528-39.127c9.629-21.625,0.357-25.754,9.986-47.379
	c9.63-21.629,18.901-17.502,28.531-39.131s0.359-25.758,9.989-47.386 M-365.288,877.41c9.626-21.622,18.898-17.494,28.525-39.117
	c9.628-21.624,0.356-25.752,9.984-47.376c9.627-21.624,18.898-17.495,28.527-39.12c9.626-21.621,0.354-25.748,9.98-47.367
	c9.627-21.623,18.898-17.496,28.525-39.117c9.627-21.623,0.357-25.751,9.983-47.374c9.628-21.624,18.9-17.497,28.528-39.122
	c9.629-21.627,0.357-25.754,9.986-47.38c9.629-21.628,18.899-17.499,28.528-39.126s0.358-25.754,9.986-47.381
	c9.63-21.629,18.902-17.502,28.531-39.129c9.63-21.629,0.359-25.758,9.989-47.386 M-377.353,872.038
	c9.626-21.622,18.898-17.494,28.525-39.118c9.628-21.623,0.356-25.75,9.984-47.374c9.627-21.624,18.898-17.496,28.526-39.12
	c9.627-21.621,0.355-25.748,9.981-47.369c9.627-21.623,18.898-17.494,28.524-39.116c9.628-21.623,0.356-25.751,9.984-47.373
	c9.628-21.626,18.899-17.498,28.528-39.124c9.628-21.625,0.357-25.754,9.985-47.379c9.629-21.627,18.9-17.499,28.529-39.126
	c9.629-21.625,0.357-25.755,9.986-47.38c9.63-21.629,18.901-17.502,28.531-39.131s0.359-25.756,9.989-47.386 M-389.418,866.667
	c9.626-21.623,18.898-17.495,28.525-39.117c9.627-21.625,0.356-25.752,9.983-47.375c9.628-21.624,18.899-17.497,28.528-39.122
	c9.625-21.619,0.354-25.746,9.979-47.366c9.627-21.624,18.898-17.495,28.524-39.117c9.628-21.623,0.357-25.751,9.984-47.374
	c9.628-21.626,18.9-17.498,28.527-39.124c9.629-21.625,0.357-25.753,9.986-47.378c9.629-21.628,18.9-17.499,28.529-39.126
	c9.629-21.626,0.358-25.754,9.986-47.38c9.63-21.629,18.901-17.502,28.53-39.131c9.63-21.628,0.36-25.756,9.99-47.386
	 M-401.484,861.295c9.628-21.622,18.899-17.493,28.526-39.118c9.627-21.622,0.357-25.75,9.983-47.373
	c9.628-21.626,18.9-17.497,28.528-39.122c9.625-21.62,0.355-25.747,9.98-47.367c9.627-21.623,18.898-17.495,28.525-39.117
	c9.627-21.623,0.356-25.751,9.983-47.373c9.628-21.626,18.9-17.498,28.527-39.124c9.629-21.625,0.358-25.754,9.986-47.379
	c9.629-21.627,18.9-17.499,28.529-39.126c9.629-21.626,0.358-25.754,9.986-47.379c9.63-21.63,18.901-17.503,28.531-39.133
	c9.629-21.627,0.359-25.755,9.989-47.384 M-413.549,855.923c9.627-21.621,18.899-17.493,28.525-39.117
	c9.628-21.623,0.356-25.751,9.984-47.374c9.628-21.625,18.899-17.497,28.528-39.121c9.625-21.62,0.353-25.749,9.98-47.369
	c9.627-21.622,18.897-17.494,28.524-39.116c9.628-21.624,0.357-25.751,9.984-47.373c9.628-21.626,18.899-17.498,28.527-39.124
	c9.629-21.625,0.357-25.753,9.986-47.379c9.629-21.627,18.9-17.499,28.529-39.126c9.629-21.625,0.358-25.754,9.986-47.379
	c9.63-21.63,18.901-17.502,28.53-39.132c9.63-21.628,0.36-25.756,9.989-47.385 M-425.614,850.552
	c9.627-21.622,18.899-17.493,28.525-39.117c9.628-21.624,0.357-25.752,9.984-47.375c9.628-21.624,18.9-17.497,28.527-39.121
	c9.626-21.62,0.355-25.748,9.981-47.368c9.627-21.623,18.897-17.494,28.525-39.116c9.627-21.624,0.356-25.751,9.983-47.374
	c9.627-21.626,18.899-17.497,28.527-39.124c9.629-21.625,0.357-25.753,9.986-47.378c9.629-21.628,18.9-17.499,28.528-39.126
	c9.629-21.627,0.359-25.754,9.986-47.381c9.63-21.628,18.902-17.501,28.532-39.13c9.629-21.629,0.358-25.756,9.988-47.386
	 M-437.679,845.181c9.628-21.622,18.899-17.495,28.525-39.118c9.628-21.623,0.357-25.751,9.984-47.374
	c9.628-21.625,18.9-17.497,28.527-39.122c9.626-21.62,0.355-25.748,9.981-47.368c9.626-21.622,18.898-17.494,28.525-39.116
	c9.627-21.624,0.356-25.751,9.983-47.373c9.628-21.626,18.899-17.498,28.527-39.124c9.629-21.625,0.358-25.754,9.986-47.379
	c9.629-21.627,18.901-17.5,28.529-39.126c9.628-21.627,0.358-25.754,9.986-47.38c9.63-21.63,18.901-17.501,28.531-39.131
	c9.63-21.629,0.358-25.756,9.988-47.385 M-449.744,839.809c9.627-21.622,18.898-17.495,28.525-39.118
	c9.628-21.623,0.357-25.751,9.984-47.374c9.628-21.624,18.899-17.497,28.527-39.121c9.626-21.62,0.355-25.749,9.981-47.369
	c9.626-21.622,18.897-17.494,28.525-39.117c9.626-21.621,0.356-25.75,9.982-47.371c9.628-21.627,18.9-17.498,28.528-39.125
	c9.629-21.625,0.357-25.753,9.986-47.379c9.629-21.627,18.899-17.5,28.528-39.126s0.358-25.754,9.986-47.38
	c9.63-21.63,18.902-17.501,28.532-39.131c9.629-21.629,0.358-25.756,9.988-47.385 M-461.809,834.438
	c9.628-21.623,18.898-17.495,28.525-39.118c9.628-21.623,0.357-25.752,9.984-47.375c9.627-21.624,18.899-17.497,28.527-39.121
	c9.626-21.62,0.355-25.748,9.98-47.368c9.627-21.623,18.899-17.494,28.526-39.117c9.626-21.623,0.356-25.75,9.982-47.373
	c9.629-21.625,18.9-17.496,28.528-39.123c9.629-21.627,0.358-25.754,9.986-47.379c9.629-21.627,18.9-17.5,28.528-39.125
	c9.629-21.628,0.358-25.755,9.987-47.382c9.629-21.629,18.901-17.501,28.531-39.13s0.358-25.756,9.988-47.386 M-473.874,829.065
	c9.627-21.622,18.898-17.495,28.526-39.118c9.627-21.623,0.356-25.751,9.983-47.374c9.628-21.626,18.899-17.497,28.527-39.123
	c9.626-21.619,0.355-25.747,9.98-47.367c9.627-21.622,18.899-17.493,28.526-39.116c9.626-21.623,0.355-25.75,9.982-47.373
	c9.629-21.625,18.9-17.498,28.529-39.123c9.627-21.625,0.357-25.754,9.984-47.381c9.629-21.625,18.901-17.498,28.53-39.125
	c9.628-21.627,0.357-25.754,9.986-47.38c9.63-21.63,18.901-17.501,28.531-39.131c9.63-21.629,0.358-25.756,9.988-47.385
	 M-485.94,823.693c9.628-21.622,18.899-17.495,28.526-39.118s0.357-25.751,9.983-47.374c9.628-21.625,18.9-17.497,28.528-39.121
	c9.625-21.62,0.355-25.749,9.98-47.369c9.627-21.621,18.899-17.494,28.525-39.117c9.627-21.621,0.356-25.75,9.983-47.373
	c9.629-21.625,18.9-17.498,28.527-39.123c9.629-21.625,0.359-25.752,9.986-47.379c9.629-21.627,18.9-17.5,28.529-39.125
	c9.629-21.627,0.358-25.754,9.987-47.381c9.63-21.629,18.901-17.5,28.531-39.131c9.63-21.628,0.358-25.756,9.988-47.385
	 M-498.005,818.322c9.628-21.623,18.899-17.495,28.527-39.118c9.626-21.623,0.356-25.752,9.982-47.375
	c9.629-21.625,18.9-17.497,28.528-39.122c9.625-21.619,0.355-25.747,9.98-47.367c9.627-21.623,18.899-17.494,28.525-39.117
	c9.627-21.623,0.356-25.75,9.983-47.373c9.629-21.625,18.9-17.497,28.528-39.122c9.628-21.628,0.357-25.755,9.985-47.38
	c9.629-21.627,18.901-17.5,28.53-39.125c9.628-21.627,0.357-25.754,9.986-47.381c9.63-21.629,18.901-17.501,28.531-39.13
	c9.63-21.629,0.358-25.756,9.988-47.386 M-510.069,812.95c9.627-21.622,18.898-17.495,28.526-39.118
	c9.626-21.624,0.355-25.751,9.983-47.374c9.628-21.625,18.899-17.497,28.527-39.123c9.625-21.62,0.354-25.747,9.98-47.366
	c9.628-21.623,18.898-17.496,28.525-39.117c9.627-21.623,0.356-25.752,9.983-47.373c9.629-21.625,18.899-17.498,28.528-39.123
	c9.628-21.626,0.357-25.754,9.986-47.381c9.628-21.625,18.9-17.498,28.529-39.125c9.629-21.625,0.357-25.754,9.986-47.379
	c9.63-21.63,18.9-17.501,28.53-39.131c9.63-21.629,0.36-25.756,9.989-47.385 M-522.135,807.578
	c9.628-21.623,18.899-17.495,28.526-39.118c9.627-21.624,0.356-25.751,9.983-47.374c9.629-21.625,18.9-17.496,28.527-39.121
	c9.626-21.621,0.355-25.748,9.981-47.369c9.627-21.621,18.898-17.494,28.525-39.116s0.356-25.751,9.983-47.373
	c9.629-21.625,18.899-17.498,28.528-39.123c9.628-21.626,0.357-25.753,9.985-47.38c9.629-21.627,18.901-17.498,28.53-39.126
	c9.627-21.625,0.357-25.753,9.986-47.379c9.629-21.629,18.9-17.501,28.53-39.13c9.63-21.629,0.358-25.758,9.988-47.386
	 M-534.199,802.207c9.627-21.624,18.898-17.495,28.525-39.117c9.627-21.625,0.356-25.752,9.984-47.375
	c9.628-21.625,18.899-17.498,28.526-39.123c9.626-21.619,0.355-25.746,9.981-47.367c9.628-21.621,18.898-17.494,28.525-39.116
	c9.627-21.623,0.356-25.751,9.984-47.374c9.627-21.625,18.898-17.497,28.527-39.122c9.628-21.627,0.357-25.754,9.986-47.38
	s18.9-17.499,28.528-39.126c9.628-21.626,0.358-25.754,9.986-47.38c9.63-21.629,18.901-17.502,28.531-39.13
	c9.63-21.629,0.359-25.757,9.988-47.386 M-546.264,796.835c9.627-21.623,18.897-17.495,28.525-39.118s0.356-25.75,9.984-47.373
	c9.628-21.625,18.898-17.498,28.526-39.123c9.627-21.621,0.355-25.748,9.982-47.367c9.626-21.622,18.897-17.495,28.524-39.117
	c9.628-21.623,0.356-25.751,9.984-47.373c9.627-21.625,18.898-17.498,28.527-39.123c9.628-21.626,0.357-25.754,9.986-47.38
	c9.629-21.627,18.899-17.499,28.528-39.126c9.629-21.625,0.357-25.754,9.986-47.379c9.63-21.63,18.901-17.502,28.531-39.131
	c9.63-21.629,0.359-25.757,9.989-47.385 M-558.329,791.464c9.627-21.624,18.897-17.496,28.525-39.118
	c9.627-21.625,0.356-25.752,9.984-47.375c9.628-21.625,18.898-17.496,28.526-39.121c9.626-21.62,0.355-25.748,9.98-47.368
	c9.628-21.622,18.899-17.495,28.526-39.116c9.626-21.623,0.356-25.752,9.982-47.374c9.629-21.625,18.9-17.498,28.529-39.124
	c9.628-21.625,0.357-25.752,9.985-47.379s18.9-17.498,28.529-39.126c9.629-21.625,0.357-25.753,9.986-47.379
	c9.63-21.629,18.901-17.502,28.531-39.13c9.63-21.629,0.359-25.758,9.988-47.387 M-570.394,786.091
	c9.626-21.622,18.897-17.493,28.525-39.118c9.628-21.623,0.356-25.75,9.984-47.375c9.627-21.623,18.898-17.495,28.526-39.12
	c9.627-21.62,0.355-25.747,9.98-47.367c9.628-21.623,18.899-17.495,28.526-39.117c9.627-21.623,0.355-25.751,9.983-47.374
	c9.628-21.626,18.899-17.497,28.528-39.123c9.627-21.626,0.357-25.754,9.986-47.379c9.628-21.627,18.899-17.499,28.528-39.126
	c9.629-21.626,0.357-25.754,9.986-47.38c9.63-21.629,18.901-17.502,28.531-39.13c9.63-21.629,0.359-25.757,9.989-47.387
	 M-582.459,780.72c9.626-21.622,18.897-17.495,28.525-39.118s0.356-25.75,9.984-47.374c9.627-21.624,18.898-17.497,28.526-39.121
	c9.626-21.62,0.355-25.748,9.981-47.368c9.627-21.623,18.898-17.495,28.524-39.117c9.628-21.624,0.357-25.751,9.984-47.373
	c9.628-21.626,18.899-17.498,28.528-39.124c9.628-21.625,0.357-25.753,9.985-47.379c9.629-21.627,18.9-17.499,28.529-39.126
	c9.629-21.625,0.358-25.754,9.986-47.379c9.63-21.63,18.901-17.502,28.531-39.132c9.63-21.628,0.359-25.756,9.989-47.385
	 M-594.525,775.349c9.627-21.624,18.898-17.496,28.526-39.118c9.627-21.624,0.356-25.752,9.983-47.375
	c9.628-21.624,18.899-17.497,28.527-39.121c9.626-21.62,0.355-25.748,9.98-47.368c9.628-21.623,18.899-17.495,28.525-39.116
	c9.628-21.623,0.356-25.752,9.984-47.374c9.628-21.626,18.899-17.497,28.527-39.124c9.628-21.625,0.357-25.753,9.986-47.378
	c9.629-21.628,18.9-17.499,28.529-39.126s0.357-25.754,9.986-47.381c9.63-21.628,18.901-17.501,28.531-39.13
	c9.63-21.628,0.359-25.757,9.989-47.386 M-606.59,769.977c9.627-21.622,18.899-17.495,28.526-39.118s0.355-25.752,9.983-47.375
	c9.628-21.624,18.899-17.496,28.527-39.121c9.626-21.62,0.354-25.748,9.981-47.367c9.627-21.623,18.897-17.495,28.524-39.116
	c9.628-21.625,0.356-25.752,9.984-47.375c9.628-21.625,18.898-17.496,28.527-39.123c9.629-21.625,0.357-25.754,9.986-47.379
	c9.629-21.627,18.9-17.498,28.529-39.126c9.629-21.627,0.357-25.754,9.986-47.381c9.63-21.628,18.9-17.501,28.53-39.13
	c9.63-21.629,0.36-25.756,9.99-47.386 M-618.655,764.604c9.627-21.622,18.899-17.495,28.525-39.118
	c9.628-21.623,0.357-25.751,9.984-47.374c9.628-21.624,18.9-17.497,28.528-39.121c9.625-21.62,0.354-25.749,9.98-47.369
	c9.627-21.622,18.897-17.493,28.524-39.116c9.628-21.623,0.357-25.75,9.984-47.373c9.628-21.625,18.899-17.498,28.527-39.123
	c9.629-21.625,0.357-25.754,9.986-47.379c9.629-21.627,18.9-17.5,28.529-39.127c9.629-21.625,0.358-25.754,9.986-47.38
	c9.63-21.629,18.901-17.501,28.531-39.131c9.629-21.629,0.359-25.756,9.989-47.385 M-630.72,759.233
	c9.627-21.623,18.898-17.496,28.525-39.118c9.628-21.624,0.356-25.752,9.984-47.375c9.628-21.624,18.899-17.497,28.526-39.121
	c9.627-21.62,0.355-25.748,9.982-47.368c9.626-21.622,18.897-17.493,28.524-39.116c9.628-21.623,0.356-25.75,9.984-47.373
	c9.627-21.627,18.898-17.5,28.527-39.125s0.357-25.752,9.986-47.377c9.629-21.629,18.9-17.5,28.529-39.126
	c9.628-21.627,0.358-25.754,9.985-47.381c9.63-21.629,18.901-17.501,28.531-39.13s0.359-25.757,9.989-47.386 M-642.785,753.861
	c9.627-21.622,18.898-17.495,28.525-39.118c9.628-21.623,0.356-25.752,9.984-47.375c9.628-21.624,18.898-17.496,28.527-39.121
	c9.626-21.62,0.355-25.748,9.981-47.368c9.626-21.621,18.897-17.494,28.524-39.117c9.628-21.623,0.357-25.75,9.984-47.373
	c9.627-21.625,18.899-17.496,28.527-39.123c9.629-21.625,0.357-25.754,9.986-47.379c9.629-21.627,18.899-17.5,28.528-39.125
	c9.629-21.627,0.359-25.754,9.986-47.38c9.63-21.63,18.902-17.502,28.532-39.131c9.629-21.629,0.358-25.756,9.988-47.385"/>
<path fill="none" stroke="#FAFBF9" stroke-width="2" stroke-miterlimit="10" d="M-98.021,374.53
	c9.627-21.623,18.898-17.495,28.525-39.118c9.628-21.623,0.356-25.752,9.984-47.375c9.628-21.625,18.899-17.496,28.526-39.122
	c9.627-21.619,0.355-25.747,9.982-47.367c9.627-21.622,18.897-17.495,28.524-39.117c9.628-21.623,0.356-25.75,9.984-47.374
	c9.627-21.625,18.898-17.497,28.527-39.122c9.629-21.627,0.357-25.754,9.986-47.38c9.629-21.626,18.9-17.499,28.528-39.125
	c9.629-21.627,0.358-25.754,9.986-47.381c9.63-21.629,18.9-17.501,28.531-39.13c9.629-21.629,0.358-25.757,9.988-47.386
	 M-110.086,369.158c9.627-21.622,18.897-17.495,28.525-39.118c9.627-21.624,0.356-25.751,9.984-47.374
	c9.628-21.625,18.898-17.497,28.526-39.123c9.626-21.62,0.355-25.747,9.981-47.367c9.627-21.622,18.898-17.495,28.525-39.117
	c9.628-21.623,0.356-25.751,9.983-47.373c9.628-21.625,18.899-17.498,28.528-39.123c9.628-21.626,0.357-25.754,9.986-47.38
	S62.852,5.684,72.48-15.942c9.629-21.627,0.356-25.755,9.986-47.38c9.629-21.63,18.9-17.501,28.53-39.131
	c9.63-21.629,0.358-25.757,9.989-47.385 M-122.151,363.787c9.627-21.624,18.897-17.496,28.525-39.118
	c9.628-21.625,0.356-25.752,9.984-47.375c9.628-21.625,18.898-17.497,28.526-39.122c9.627-21.62,0.355-25.747,9.982-47.367
	c9.626-21.623,18.897-17.496,28.524-39.117c9.627-21.623,0.356-25.751,9.983-47.374C3.001,82.688,12.272,86.815,21.901,65.19
	c9.629-21.626,0.357-25.753,9.986-47.379C41.516-3.816,50.786,0.312,60.415-21.314c9.629-21.626,0.356-25.753,9.985-47.38
	c9.631-21.629,18.902-17.501,28.531-39.13c9.631-21.629,0.359-25.758,9.989-47.386 M-134.216,358.415
	c9.626-21.623,18.898-17.495,28.525-39.118c9.628-21.624,0.356-25.752,9.984-47.375c9.627-21.625,18.898-17.496,28.527-39.122
	c9.626-21.62,0.354-25.747,9.98-47.367c9.627-21.622,18.898-17.495,28.525-39.117c9.627-21.623,0.357-25.751,9.983-47.374
	c9.628-21.624,18.9-17.497,28.528-39.122c9.629-21.627,0.357-25.754,9.986-47.38C29.45-9.187,38.721-5.06,48.35-26.687
	c9.628-21.626,0.358-25.754,9.986-47.38c9.631-21.629,18.902-17.501,28.531-39.13c9.63-21.629,0.359-25.757,9.988-47.385
	 M-146.281,353.042c9.626-21.622,18.898-17.494,28.525-39.118c9.628-21.623,0.356-25.75,9.984-47.373
	c9.627-21.625,18.898-17.497,28.526-39.122c9.627-21.62,0.355-25.748,9.981-47.368c9.627-21.622,18.898-17.495,28.524-39.117
	c9.628-21.623,0.356-25.751,9.984-47.373c9.628-21.626,18.899-17.498,28.528-39.124C7.399,32.822-1.872,28.692,7.756,7.067
	c9.629-21.626,18.9-17.499,28.529-39.126c9.629-21.625,0.357-25.754,9.986-47.379c9.63-21.63,18.901-17.502,28.532-39.131
	c9.629-21.629,0.358-25.757,9.988-47.385 M-158.347,347.671c9.627-21.623,18.899-17.495,28.526-39.118
	c9.627-21.624,0.356-25.751,9.983-47.375c9.628-21.624,18.899-17.496,28.528-39.121c9.625-21.62,0.355-25.747,9.98-47.367
	c9.627-21.623,18.898-17.495,28.524-39.117c9.628-21.623,0.357-25.751,9.984-47.374c9.628-21.626,18.9-17.498,28.527-39.124
	c9.629-21.625,0.357-25.753,9.986-47.378c9.629-21.628,18.9-17.499,28.529-39.126c9.629-21.626,0.358-25.754,9.986-47.38
	c9.63-21.629,18.901-17.502,28.53-39.131c9.63-21.628,0.359-25.756,9.99-47.386 M-170.412,342.299
	c9.628-21.622,18.899-17.494,28.526-39.118c9.627-21.623,0.357-25.75,9.983-47.374c9.628-21.625,18.9-17.497,28.528-39.122
	c9.625-21.62,0.355-25.747,9.98-47.367c9.627-21.623,18.898-17.495,28.525-39.117c9.627-21.623,0.356-25.751,9.983-47.373
	c9.628-21.625,18.9-17.498,28.527-39.124c9.629-21.626,0.358-25.754,9.986-47.379c9.629-21.627,18.9-17.499,28.529-39.126
	c9.629-21.626,0.358-25.754,9.986-47.379c9.63-21.63,18.901-17.503,28.531-39.132c9.629-21.628,0.359-25.756,9.989-47.385
	 M-182.477,336.927c9.627-21.622,18.899-17.494,28.525-39.118c9.628-21.623,0.356-25.75,9.984-47.374s18.899-17.497,28.528-39.121
	c9.625-21.62,0.353-25.748,9.98-47.369c9.627-21.622,18.897-17.494,28.524-39.116c9.628-21.624,0.357-25.751,9.984-47.373
	c9.628-21.626,18.899-17.498,28.527-39.124c9.629-21.625,0.357-25.753,9.986-47.379c9.629-21.627,18.9-17.499,28.529-39.126
	c9.629-21.625,0.358-25.754,9.986-47.379c9.63-21.63,18.901-17.502,28.53-39.132c9.63-21.628,0.36-25.756,9.989-47.385
	 M-194.542,331.556c9.627-21.623,18.899-17.494,28.525-39.118c9.628-21.624,0.357-25.752,9.984-47.375
	c9.628-21.624,18.9-17.497,28.527-39.121c9.626-21.62,0.355-25.748,9.981-47.367c9.627-21.624,18.897-17.495,28.525-39.117
	c9.627-21.624,0.356-25.751,9.983-47.374C-69.39,50.458-60.118,54.586-50.49,32.96c9.629-21.625,0.357-25.753,9.986-47.378
	c9.629-21.628,18.9-17.499,28.528-39.126c9.629-21.627,0.359-25.754,9.986-47.38c9.63-21.629,18.902-17.502,28.532-39.131
	c9.629-21.628,0.358-25.756,9.988-47.386 M-206.607,326.184c9.628-21.622,18.899-17.495,28.525-39.118
	c9.628-21.623,0.357-25.751,9.984-47.374c9.628-21.625,18.9-17.497,28.527-39.122c9.626-21.62,0.355-25.748,9.981-47.367
	c9.626-21.623,18.898-17.495,28.525-39.117c9.627-21.624,0.356-25.751,9.983-47.373c9.628-21.626,18.899-17.498,28.527-39.124
	c9.629-21.625,0.358-25.754,9.986-47.379c9.629-21.627,18.901-17.499,28.528-39.126c9.629-21.627,0.358-25.754,9.987-47.38
	c9.63-21.629,18.901-17.501,28.531-39.131c9.63-21.629,0.358-25.756,9.988-47.385 M-218.672,320.812
	c9.627-21.622,18.898-17.495,28.525-39.118c9.628-21.623,0.357-25.751,9.984-47.374c9.628-21.624,18.899-17.497,28.527-39.121
	c9.626-21.62,0.355-25.749,9.981-47.369c9.626-21.622,18.897-17.494,28.525-39.116c9.626-21.623,0.356-25.751,9.982-47.373
	c9.628-21.626,18.9-17.498,28.528-39.124c9.629-21.625,0.357-25.753,9.986-47.379c9.629-21.627,18.899-17.499,28.528-39.126
	c9.629-21.626,0.358-25.754,9.986-47.38c9.63-21.629,18.902-17.501,28.532-39.131c9.629-21.629,0.358-25.756,9.988-47.385
	 M-230.737,315.44c9.628-21.623,18.898-17.495,28.525-39.118c9.628-21.623,0.357-25.752,9.984-47.375
	c9.627-21.624,18.899-17.497,28.527-39.121c9.626-21.62,0.355-25.748,9.98-47.368c9.627-21.623,18.899-17.494,28.526-39.117
	c9.626-21.623,0.356-25.75,9.982-47.373c9.629-21.626,18.9-17.497,28.528-39.124c9.629-21.625,0.358-25.753,9.986-47.378
	c9.629-21.627,18.9-17.5,28.528-39.126c9.629-21.627,0.358-25.754,9.987-47.381c9.629-21.629,18.901-17.501,28.531-39.13
	c9.63-21.629,0.358-25.756,9.988-47.386 M-242.802,310.069c9.627-21.622,18.898-17.495,28.526-39.118
	c9.627-21.623,0.356-25.751,9.983-47.374c9.628-21.625,18.899-17.497,28.527-39.122c9.626-21.62,0.355-25.748,9.98-47.368
	c9.627-21.622,18.899-17.495,28.526-39.117c9.626-21.623,0.355-25.75,9.982-47.372c9.629-21.626,18.9-17.499,28.529-39.124
	c9.627-21.625,0.357-25.754,9.984-47.38c9.629-21.626,18.901-17.499,28.53-39.125c9.628-21.627,0.357-25.754,9.986-47.38
	c9.63-21.63,18.901-17.501,28.531-39.131c9.63-21.629,0.358-25.756,9.988-47.385 M-254.867,304.697
	c9.627-21.622,18.898-17.495,28.525-39.118s0.357-25.751,9.983-47.374c9.628-21.625,18.9-17.497,28.528-39.121
	c9.625-21.62,0.355-25.749,9.98-47.369c9.627-21.622,18.899-17.495,28.525-39.117c9.627-21.622,0.356-25.75,9.983-47.373
	c9.629-21.625,18.9-17.498,28.527-39.123c9.629-21.626,0.359-25.753,9.986-47.38c9.629-21.626,18.9-17.499,28.529-39.125
	s0.358-25.754,9.987-47.38c9.63-21.628,18.901-17.501,28.531-39.131c9.63-21.629,0.358-25.756,9.988-47.385 M-266.933,299.326
	c9.628-21.623,18.899-17.495,28.527-39.118c9.626-21.623,0.356-25.751,9.982-47.375c9.629-21.625,18.9-17.497,28.528-39.121
	c9.625-21.621,0.355-25.748,9.98-47.368c9.627-21.623,18.899-17.495,28.525-39.117c9.627-21.623,0.356-25.751,9.983-47.374
	c9.629-21.625,18.9-17.497,28.528-39.122c9.628-21.627,0.357-25.754,9.985-47.38c9.629-21.626,18.901-17.499,28.53-39.125
	c9.628-21.627,0.357-25.754,9.986-47.381c9.63-21.629,18.901-17.501,28.531-39.13c9.63-21.629,0.358-25.756,9.988-47.386
	 M-278.997,293.954c9.627-21.622,18.898-17.495,28.526-39.118c9.626-21.623,0.355-25.751,9.983-47.374
	c9.628-21.624,18.899-17.497,28.527-39.123c9.625-21.62,0.354-25.747,9.98-47.367c9.628-21.622,18.898-17.495,28.525-39.117
	c9.627-21.623,0.356-25.751,9.983-47.373c9.629-21.625,18.899-17.498,28.528-39.123c9.628-21.626,0.357-25.754,9.986-47.38
	c9.628-21.626,18.9-17.499,28.529-39.125c9.629-21.627,0.357-25.755,9.986-47.38c9.63-21.63,18.9-17.501,28.53-39.131
	c9.63-21.629,0.36-25.756,9.989-47.385 M-291.063,288.582c9.628-21.623,18.899-17.495,28.526-39.118
	c9.627-21.624,0.356-25.751,9.983-47.374c9.629-21.625,18.9-17.497,28.527-39.122c9.626-21.619,0.355-25.748,9.981-47.368
	c9.627-21.622,18.898-17.495,28.525-39.117c9.627-21.622,0.356-25.751,9.983-47.373c9.629-21.625,18.899-17.498,28.528-39.123
	c9.628-21.626,0.357-25.753,9.985-47.38c9.629-21.626,18.901-17.499,28.53-39.126c9.627-21.625,0.357-25.754,9.986-47.379
	c9.629-21.629,18.9-17.501,28.53-39.13s0.358-25.758,9.988-47.386 M-303.127,283.211c9.627-21.624,18.898-17.495,28.525-39.118
	c9.627-21.624,0.356-25.752,9.984-47.375c9.628-21.625,18.899-17.497,28.526-39.122c9.626-21.62,0.355-25.747,9.981-47.367
	c9.628-21.622,18.898-17.495,28.525-39.117c9.627-21.623,0.356-25.751,9.984-47.374c9.627-21.625,18.898-17.497,28.527-39.122
	c9.628-21.627,0.357-25.754,9.986-47.38c9.629-21.626,18.9-17.499,28.528-39.126c9.628-21.626,0.358-25.753,9.986-47.38
	c9.63-21.629,18.901-17.501,28.531-39.13s0.359-25.757,9.988-47.386 M-315.192,277.839c9.627-21.623,18.897-17.495,28.525-39.118
	c9.627-21.624,0.356-25.751,9.984-47.374c9.628-21.625,18.898-17.497,28.526-39.123c9.627-21.62,0.355-25.747,9.982-47.367
	c9.626-21.622,18.897-17.495,28.524-39.117c9.628-21.623,0.356-25.751,9.984-47.373c9.627-21.625,18.898-17.498,28.527-39.123
	c9.628-21.626,0.357-25.753,9.986-47.38s18.899-17.499,28.528-39.126c9.629-21.625,0.357-25.754,9.986-47.379
	c9.63-21.63,18.901-17.501,28.531-39.131c9.63-21.629,0.359-25.757,9.989-47.385 M-327.257,272.468
	c9.627-21.624,18.897-17.496,28.525-39.119c9.627-21.624,0.356-25.751,9.984-47.375s18.898-17.496,28.526-39.121
	c9.626-21.62,0.355-25.748,9.98-47.368c9.628-21.622,18.899-17.495,28.526-39.116c9.626-21.623,0.356-25.752,9.982-47.374
	c9.629-21.625,18.9-17.498,28.529-39.124c9.628-21.625,0.357-25.752,9.985-47.379s18.9-17.498,28.529-39.126
	c9.629-21.625,0.357-25.753,9.986-47.379c9.63-21.629,18.901-17.502,28.531-39.13c9.63-21.629,0.359-25.758,9.988-47.387
	 M-339.322,267.095c9.626-21.623,18.897-17.494,28.525-39.118c9.628-21.623,0.356-25.751,9.984-47.375
	c9.627-21.624,18.898-17.495,28.526-39.121c9.627-21.62,0.355-25.747,9.981-47.367c9.627-21.622,18.898-17.495,28.525-39.117
	c9.627-21.623,0.355-25.751,9.983-47.374c9.628-21.626,18.899-17.497,28.528-39.122c9.627-21.627,0.357-25.755,9.986-47.38
	c9.628-21.627,18.899-17.499,28.528-39.126c9.629-21.626,0.357-25.754,9.986-47.38c9.63-21.629,18.901-17.502,28.531-39.13
	c9.63-21.629,0.359-25.757,9.989-47.387 M-351.387,261.723c9.626-21.622,18.897-17.494,28.525-39.118
	c9.628-21.623,0.356-25.75,9.984-47.374c9.627-21.624,18.898-17.496,28.526-39.121c9.627-21.621,0.355-25.748,9.981-47.368
	c9.627-21.622,18.898-17.495,28.524-39.117c9.628-21.623,0.356-25.751,9.984-47.373c9.628-21.626,18.899-17.498,28.528-39.123
	c9.628-21.626,0.357-25.754,9.985-47.38c9.629-21.627,18.9-17.499,28.529-39.126c9.629-21.625,0.358-25.754,9.986-47.379
	c9.63-21.63,18.901-17.502,28.531-39.132c9.63-21.628,0.359-25.756,9.989-47.385 M-363.453,256.352
	c9.627-21.623,18.898-17.495,28.526-39.117c9.627-21.625,0.356-25.752,9.983-47.376c9.628-21.624,18.899-17.497,28.527-39.121
	c9.626-21.62,0.355-25.749,9.98-47.368c9.628-21.623,18.899-17.494,28.525-39.116c9.628-21.623,0.356-25.752,9.984-47.374
	c9.628-21.626,18.899-17.498,28.527-39.124c9.628-21.625,0.357-25.753,9.986-47.379c9.629-21.627,18.9-17.498,28.529-39.126
	c9.629-21.625,0.357-25.753,9.986-47.38c9.63-21.628,18.901-17.501,28.531-39.13c9.63-21.628,0.359-25.757,9.989-47.386
	 M-375.518,250.979c9.627-21.623,18.899-17.495,28.526-39.118c9.627-21.623,0.356-25.752,9.983-47.375
	c9.628-21.624,18.899-17.496,28.527-39.121c9.626-21.62,0.354-25.747,9.981-47.367c9.627-21.623,18.898-17.495,28.524-39.117
	c9.628-21.624,0.356-25.751,9.984-47.374c9.628-21.626,18.9-17.497,28.527-39.123c9.629-21.626,0.357-25.754,9.986-47.379
	c9.629-21.627,18.9-17.499,28.529-39.126c9.629-21.626,0.357-25.754,9.986-47.381c9.63-21.628,18.9-17.501,28.53-39.13
	c9.63-21.628,0.36-25.756,9.99-47.386 M-387.583,245.607c9.627-21.622,18.899-17.495,28.525-39.118
	c9.628-21.623,0.357-25.751,9.984-47.374c9.628-21.624,18.899-17.497,28.528-39.121c9.625-21.62,0.354-25.749,9.98-47.368
	c9.627-21.623,18.897-17.495,28.524-39.117c9.628-21.623,0.357-25.751,9.984-47.373c9.628-21.626,18.899-17.498,28.527-39.124
	c9.629-21.625,0.357-25.753,9.986-47.379c9.629-21.627,18.9-17.499,28.529-39.126c9.629-21.626,0.358-25.754,9.986-47.379
	c9.63-21.63,18.901-17.502,28.531-39.132c9.629-21.629,0.359-25.756,9.989-47.385 M-399.648,240.237
	c9.627-21.623,18.898-17.496,28.525-39.118c9.628-21.624,0.356-25.752,9.984-47.375c9.628-21.624,18.899-17.497,28.526-39.121
	c9.627-21.62,0.355-25.748,9.982-47.367c9.627-21.624,18.897-17.495,28.524-39.117c9.628-21.624,0.356-25.751,9.984-47.374
	c9.627-21.626,18.898-17.499,28.527-39.124c9.629-21.625,0.357-25.753,9.986-47.378c9.629-21.628,18.9-17.499,28.529-39.126
	c9.628-21.627,0.358-25.754,9.985-47.381c9.63-21.628,18.901-17.501,28.531-39.13s0.359-25.757,9.989-47.386 M-411.713,234.865
	c9.627-21.622,18.899-17.495,28.525-39.118c9.628-21.623,0.356-25.751,9.984-47.375c9.628-21.624,18.898-17.496,28.527-39.121
	c9.626-21.62,0.355-25.748,9.981-47.368c9.626-21.622,18.897-17.494,28.524-39.117c9.628-21.623,0.357-25.75,9.984-47.374
	s18.899-17.496,28.527-39.122c9.629-21.625,0.357-25.754,9.986-47.379c9.629-21.627,18.899-17.5,28.528-39.126
	c9.629-21.627,0.359-25.754,9.986-47.381c9.63-21.628,18.902-17.501,28.532-39.13c9.629-21.629,0.358-25.756,9.988-47.385"/>
<rect x="-173" y="149.001" fill="none" width="930.601" height="721"/>
<g>
</g>
<g>
</g>
<g>
</g>
<g>
</g>
<g>
</g>
<g>
</g>
<g>
</g>
<g>
</g>
<g>
</g>
<g>
</g>
<g>
</g>
<g>
</g>
<g>
</g>
<g>
</g>
<g>
</g>
</svg>
